<?xml version="1.0" standalone="no"?>
<!DOCTYPE svg PUBLIC "-//W3C//DTD SVG 20010904//EN"
 "http://www.w3.org/TR/2001/REC-SVG-20010904/DTD/svg10.dtd">
<svg version="1.0" xmlns="http://www.w3.org/2000/svg"
 width="477.000000pt" height="477.000000pt" viewBox="0 0 477.000000 477.000000"
 preserveAspectRatio="xMidYMid meet">
<metadata>
Created by potrace 1.14, written by Peter Selinger 2001-2017
</metadata>
<g transform="translate(0.000000,477.000000) scale(0.100000,-0.100000)"
fill="#000000" stroke="none">
<path d="M1765 3456 c-16 -8 -41 -26 -54 -40 -18 -19 -35 -26 -62 -26 -20 0
-42 -7 -49 -15 -7 -8 -20 -15 -30 -15 -10 0 -23 -7 -30 -15 -7 -9 -15 -13 -17
-11 -3 3 -33 -10 -66 -28 -34 -18 -67 -31 -73 -29 -6 2 -19 -6 -29 -17 -10
-11 -26 -20 -35 -20 -9 0 -25 -7 -36 -15 -10 -8 -26 -15 -35 -15 -9 0 -22 -7
-29 -15 -7 -8 -16 -13 -20 -10 -4 3 -19 -4 -33 -15 -14 -11 -34 -20 -45 -20
-11 0 -25 -7 -32 -15 -7 -8 -18 -15 -25 -15 -12 0 -52 -18 -95 -42 -8 -4 -22
-11 -30 -14 -8 -3 -23 -10 -32 -15 -10 -5 -26 -13 -35 -18 -10 -4 -32 -16 -50
-25 -17 -9 -37 -16 -45 -16 -8 0 -29 -16 -48 -35 -28 -29 -41 -35 -76 -35 -25
0 -47 -6 -54 -15 -7 -8 -23 -15 -37 -15 -13 0 -26 -7 -29 -15 -4 -8 -13 -15
-22 -15 -38 0 -142 -62 -198 -117 -110 -110 -99 -71 -101 -362 -1 -141 -3
-267 -5 -281 -3 -14 2 -37 9 -51 14 -29 19 -54 29 -144 3 -33 11 -63 18 -67 6
-4 35 -15 64 -24 49 -16 52 -19 52 -49 0 -44 15 -53 91 -61 61 -6 69 -4 123
26 l56 32 103 -12 c56 -6 113 -13 126 -15 44 -7 105 -15 161 -20 30 -3 66 -7
80 -9 14 -3 52 -8 85 -11 33 -4 71 -9 85 -11 14 -1 52 -6 85 -9 108 -12 202
-24 325 -40 19 -3 53 -7 75 -9 50 -6 144 -18 170 -21 11 -2 45 -6 75 -10 30
-3 66 -8 80 -10 14 -2 50 -7 80 -10 30 -3 67 -8 81 -10 14 -3 43 -7 65 -9 106
-13 141 -18 164 -21 32 -5 105 -14 153 -20 20 -3 56 -8 80 -11 23 -3 56 -8 72
-9 97 -10 211 -28 217 -33 4 -4 10 -23 13 -42 3 -19 9 -38 13 -41 4 -4 39 -10
77 -14 39 -4 72 -7 75 -8 3 -1 26 14 50 34 37 30 52 36 85 34 40 -2 40 -2 145
82 8 7 67 53 130 103 63 50 122 96 130 103 21 17 407 323 450 357 19 15 71 56
115 91 44 35 87 69 95 76 114 90 179 149 200 179 34 51 38 106 37 464 l-2 304
-45 27 c-39 23 -60 28 -150 34 -58 3 -123 7 -145 10 -93 9 -184 16 -250 21
-38 2 -77 6 -85 9 -8 2 -60 7 -115 11 -55 3 -107 8 -116 9 -14 3 -108 11 -239
20 -19 1 -60 5 -90 8 -80 9 -177 18 -245 23 -33 2 -80 6 -105 8 -25 2 -81 7
-125 11 -44 4 -96 9 -115 10 -19 2 -73 6 -120 10 -47 3 -103 8 -125 11 -41 5
-104 11 -210 19 -33 3 -85 7 -115 10 -30 3 -86 8 -125 11 -38 3 -88 7 -110 9
-152 13 -202 13 -230 1z"/>
</g>
</svg>
